# xmcd CD database file
#
# Track frame offsets:
#	150
#	45032
#	91243
#	111674
#
# Disc length: 2472 seconds
#
# Revision: 0
# Processed by: cddbd v1.5.1PL0 Copyright (c) Steve Scherf et al.
# Submitted via: CDex 1.51
#
DISCID=2709a604
DTITLE=Miles Davis - Live at Fillmore East03061970 - 2nd
DYEAR=1970
DGENRE=Jazz
TTITLE0=Directions
TTITLE1=Miles Runs the Voodoo Down
TTITLE2=Miles Runs the Voodoo Down(concl)
TTITLE3=It's About That Time/The Theme
EXTD=YEAR: 1970
EXTT0=
EXTT1=
EXTT2=
EXTT3=
PLAYORDER=
